HIERARCHY
ROOT hips
{
  OFFSET 0 10.6860622 2.3727825e-15
  CHANNELS 6 Xposition Yposition Zposition Yrotation Xrotation Zrotation
  JOINT leftUpperLeg
  {
    OFFSET 0.6642549969 -0.9402397400000004 0
    CHANNELS 3 Yrotation Xrotation Zrotation
    JOINT leftLowerLeg
    {
      OFFSET 0 -3.997221335632195 0
      CHANNELS 3 Yrotation Xrotation Zrotation
      JOINT leftFoot
      {
        OFFSET -0.13777839790000004 -4.6145792000000005 -0.22186036399999998
        CHANNELS 3 Yrotation Xrotation Zrotation
        JOINT leftToes
        {
          OFFSET -0.03777410834999995 -0.9130806927000008 0.85230013
          CHANNELS 3 Yrotation Xrotation Zrotation
          End Site
          {
            OFFSET -0.03777410834999995 -0.9130806927000008 0.85230013
          }
        }
      }
    }
  }
  JOINT rightUpperLeg
  {
    OFFSET -0.6642778626 -0.9402397400000004 0
    CHANNELS 3 Yrotation Xrotation Zrotation
    JOINT rightLowerLeg
    {
      OFFSET 0 -3.997221452859387 0
      CHANNELS 3 Yrotation Xrotation Zrotation
      JOINT rightFoot
      {
        OFFSET 0.1377926176 -4.6145792000000005 -0.22185782299999995
        CHANNELS 3 Yrotation Xrotation Zrotation
        JOINT rightToes
        {
          OFFSET 0.037780746850000047 -0.9130806927000008 0.85230167
          CHANNELS 3 Yrotation Xrotation Zrotation
          End Site
          {
            OFFSET 0.037780746850000047 -0.9130806927000008 0.85230167
          }
        }
      }
    }
  }
  JOINT spine
  {
    OFFSET 0 0.13988381660000015 0
    CHANNELS 3 Yrotation Xrotation Zrotation
    JOINT chest
    {
      OFFSET 0 0.6191039003973773 0
      CHANNELS 3 Yrotation Xrotation Zrotation
      JOINT upperChest
      {
        OFFSET 0 0.9855186130586943 0
        CHANNELS 3 Yrotation Xrotation Zrotation
        JOINT leftShoulder
        {
          OFFSET 0.1807663869 1.5087829790000005 0
          CHANNELS 3 Yrotation Xrotation Zrotation
          JOINT leftUpperArm
          {
            OFFSET 0.5985063006419806 0 0
            CHANNELS 3 Yrotation Xrotation Zrotation
            JOINT leftLowerArm
            {
              OFFSET 2.2993332369501065 0 0
              CHANNELS 3 Yrotation Xrotation Zrotation
              JOINT leftHand
              {
                OFFSET 2.395047042602395 0 0
                CHANNELS 3 Yrotation Xrotation Zrotation
                JOINT leftIndexProximal
                {
                  OFFSET 0.5766295810000004 0.04556643899499946 0.17265095988184
                  CHANNELS 3 Yrotation Xrotation Zrotation
                  JOINT leftIndexIntermediate
                  {
                    OFFSET 0.2957229000000008 -0.019352197700001517 -0.007932640616999987
                    CHANNELS 3 Yrotation Xrotation Zrotation
                    JOINT leftIndexDistal
                    {
                      OFFSET 0.19008243099999922 -0.012484908149998475 -0.002786250786000012
                      CHANNELS 3 Yrotation Xrotation Zrotation
                      End Site
                      {
                        OFFSET 0.19008243099999922 -0.012484908149998475 -0.002786250786000012
                      }
                    }
                  }
                }
                JOINT leftMiddleProximal
                {
                  OFFSET 0.5834975091000001 0.0524350405149987 0.02204081888183999
                  CHANNELS 3 Yrotation Xrotation Zrotation
                  JOINT leftMiddleIntermediate
                  {
                    OFFSET 0.33880573540000003 -0.019871473270000717 -0.00000971183179999946
                    CHANNELS 3 Yrotation Xrotation Zrotation
                    JOINT leftMiddleDistal
                    {
                      OFFSET 0.20676022730000088 -0.012221336379999448 0.0001471936708000235
                      CHANNELS 3 Yrotation Xrotation Zrotation
                      End Site
                      {
                        OFFSET 0.20676022730000088 -0.012221336379999448 0.0001471936708000235
                      }
                    }
                  }
                }
                JOINT leftLittleProximal
                {
                  OFFSET 0.5344154683999995 -0.012880921405001189 -0.24414037221816004
                  CHANNELS 3 Yrotation Xrotation Zrotation
                  JOINT leftLittleIntermediate
                  {
                    OFFSET 0.21758961730000093 -0.011650919939999227 0.011893592810000034
                    CHANNELS 3 Yrotation Xrotation Zrotation
                    JOINT leftLittleDistal
                    {
                      OFFSET 0.1475273964999999 -0.008152365682999818 0.006001092492999946
                      CHANNELS 3 Yrotation Xrotation Zrotation
                      End Site
                      {
                        OFFSET 0.1475273964999999 -0.008152365682999818 0.006001092492999946
                      }
                    }
                  }
                }
                JOINT leftRingProximal
                {
                  OFFSET 0.5799399463000003 0.026911854694997794 -0.12150566991816003
                  CHANNELS 3 Yrotation Xrotation Zrotation
                  JOINT leftRingIntermediate
                  {
                    OFFSET 0.26167887460000006 -0.013480186499999602 0.010996293000000053
                    CHANNELS 3 Yrotation Xrotation Zrotation
                    JOINT leftRingDistal
                    {
                      OFFSET 0.17667108799999987 -0.008990287899999228 0.0055541023999999065
                      CHANNELS 3 Yrotation Xrotation Zrotation
                      End Site
                      {
                        OFFSET 0.17667108799999987 -0.008990287899999228 0.0055541023999999065
                      }
                    }
                  }
                }
                JOINT leftThumbProximal
                {
                  OFFSET 0.11018806699999972 -0.09448718900500053 0.17047963138184
                  CHANNELS 3 Yrotation Xrotation Zrotation
                  JOINT leftThumbIntermediate
                  {
                    OFFSET 0.31062601459999983 -0.08126270900000132 0.15443142000000007
                    CHANNELS 3 Yrotation Xrotation Zrotation
                    JOINT leftThumbDistal
                    {
                      OFFSET 0.21627175790000086 -0.08833193599999878 0.018771167799999988
                      CHANNELS 3 Yrotation Xrotation Zrotation
                      End Site
                      {
                        OFFSET 0.21627175790000086 -0.08833193599999878 0.018771167799999988
                      }
                    }
                  }
                }
              }
            }
          }
        }
        JOINT neck
        {
          OFFSET 0 1.5463305265074576 0
          CHANNELS 3 Yrotation Xrotation Zrotation
          JOINT head
          {
            OFFSET 0 0.8456443600000344 0
            CHANNELS 3 Yrotation Xrotation Zrotation
            JOINT leftEye
            {
              OFFSET 0.30408573140000006 0.5104519199999995 0.1276382305
              CHANNELS 3 Yrotation Xrotation Zrotation
              End Site
              {
                OFFSET 0.30408573140000006 0.5104519199999995 0.1276382305
              }
            }
            JOINT rightEye
            {
              OFFSET -0.30409491089999996 0.5104519199999995 0.1276379445
              CHANNELS 3 Yrotation Xrotation Zrotation
              End Site
              {
                OFFSET -0.30409491089999996 0.5104519199999995 0.1276379445
              }
            }
            JOINT jaw
            {
              OFFSET -3.155239131000001e-7 -0.11984121820000082 0.60178107
              CHANNELS 3 Yrotation Xrotation Zrotation
              End Site
              {
                OFFSET -3.155239131000001e-7 -0.11984121820000082 0.60178107
              }
            }
          }
        }
        JOINT rightShoulder
        {
          OFFSET -0.1807303465 1.5087829790000005 0
          CHANNELS 3 Yrotation Xrotation Zrotation
          JOINT rightUpperArm
          {
            OFFSET -0.5985063796536958 0 0
            CHANNELS 3 Yrotation Xrotation Zrotation
            JOINT rightLowerArm
            {
              OFFSET -2.2993322059002854 0 0
              CHANNELS 3 Yrotation Xrotation Zrotation
              JOINT rightHand
              {
                OFFSET -2.395045314457259 0 0
                CHANNELS 3 Yrotation Xrotation Zrotation
                JOINT rightIndexProximal
                {
                  OFFSET -0.5764487688300002 0.0441371204405987 0.17361932004999997
                  CHANNELS 3 Yrotation Xrotation Zrotation
                  JOINT rightIndexIntermediate
                  {
                    OFFSET -0.29573011380000047 -0.01934826376999843 -0.007698921482999974
                    CHANNELS 3 Yrotation Xrotation Zrotation
                    JOINT rightIndexDistal
                    {
                      OFFSET -0.19008373999999884 -0.012503266380000655 -0.0026365778999999897
                      CHANNELS 3 Yrotation Xrotation Zrotation
                      End Site
                      {
                        OFFSET -0.19008373999999884 -0.012503266380000655 -0.0026365778999999897
                      }
                    }
                  }
                }
                JOINT rightMiddleProximal
                {
                  OFFSET -0.5834852037300005 0.05211639405060153 0.02307162440000001
                  CHANNELS 3 Yrotation Xrotation Zrotation
                  JOINT rightMiddleIntermediate
                  {
                    OFFSET -0.33880114510000003 -0.019952774050000954 0.0002455003561999819
                    CHANNELS 3 Yrotation Xrotation Zrotation
                    JOINT rightMiddleDistal
                    {
                      OFFSET -0.20675694929999955 -0.012273788999999091 0.00030209124000002766
                      CHANNELS 3 Yrotation Xrotation Zrotation
                      End Site
                      {
                        OFFSET -0.20675694929999955 -0.012273788999999091 0.00030209124000002766
                      }
                    }
                  }
                }
                JOINT rightLittleProximal
                {
                  OFFSET -0.5346811737299992 -0.011214256288399227 -0.24363941305000003
                  CHANNELS 3 Yrotation Xrotation Zrotation
                  JOINT rightLittleIntermediate
                  {
                    OFFSET -0.21757715980000092 -0.011771559690000988 0.01201554387
                    CHANNELS 3 Yrotation Xrotation Zrotation
                    JOINT rightLittleDistal
                    {
                      OFFSET -0.1475201849000004 -0.00822055339600003 0.006082065407000015
                      CHANNELS 3 Yrotation Xrotation Zrotation
                      End Site
                      {
                        OFFSET -0.1475201849000004 -0.00822055339600003 0.006082065407000015
                      }
                    }
                  }
                }
                JOINT rightRingProximal
                {
                  OFFSET -0.5800810755299999 0.027657985680600072 -0.12066365025000003
                  CHANNELS 3 Yrotation Xrotation Zrotation
                  JOINT rightRingIntermediate
                  {
                    OFFSET -0.26166445029999974 -0.013623118409999302 0.011164098990000045
                    CHANNELS 3 Yrotation Xrotation Zrotation
                    JOINT rightRingDistal
                    {
                      OFFSET -0.17666387530000027 -0.009072900100000503 0.005668185599999959
                      CHANNELS 3 Yrotation Xrotation Zrotation
                      End Site
                      {
                        OFFSET -0.17666387530000027 -0.009072900100000503 0.005668185599999959
                      }
                    }
                  }
                }
                JOINT rightThumbProximal
                {
                  OFFSET -0.10997596379000074 -0.09577489355940072 0.16989765924999997
                  CHANNELS 3 Yrotation Xrotation Zrotation
                  JOINT rightThumbIntermediate
                  {
                    OFFSET -0.31036620999999986 -0.08229339117999834 0.15440884469999996
                    CHANNELS 3 Yrotation Xrotation Zrotation
                    JOINT rightThumbDistal
                    {
                      OFFSET -0.21631306399999906 -0.08825326400000111 0.018656797720000014
                      CHANNELS 3 Yrotation Xrotation Zrotation
                      End Site
                      {
                        OFFSET -0.21631306399999906 -0.08825326400000111 0.018656797720000014
                      }
                    }
                  }
                }
              }
            }
          }
        }
      }
    }
  }
}
MOTION
Frames: 9
Frame Time: 0.03333333333333333
0 11.682712981546562 0 0 0 0 0 0 -5.826343164929014 -0.3712483961610101 -3.6333298826370974 5.838118207697276 0 0 0 0 0 0 0 0 5.826343164929014 0.3712483961610101 -3.6333298826370974 -5.838118207697276 0 0 0 0 0 0 0 -4.610651315171937 0 0 3.0831277533083026 0 0 0 0 0 1.5275236235667615 0 0 0 0 0 0 0 0 0 0 0 0 0 0 0 0 0 0 0 0 0 0 0 0 0 0 0 0 0 0 0 0 0 0 0 0 0 0 0 0 0 0 0 0 0 0 0 0 0 0 0 0 0 0 0 0 1.5275236235667615 0 0 0 0 0 0 0 0 0 0 0 0 0 0 1.5275236235667615 0 0 0 0 0 0 0 0 0 0 0 0 0 0 0 0 0 0 0 0 0 0 0 0 0 0 0 0 0 0 0 0 0 0 0 0 0 0 0 0 0 0 0 0 0 0 0 0 0 0 0 0 0 0 0
2.1468555533869287 -11.147055686473893 2.1468555533869287 180 -64.99563263813488 180 -25.004420106053434 -28.455970601789755 52.81689284683213 174.65639564496465 42.385379470405205 172.10051698358626 -0.003501796408491745 2.9991939409072557 -1.0023681868484131 0 0 0 23.34202963467065 -35.794310522264276 -62.33439603574794 -173.41813124029784 48.32352261224107 -171.21833230964097 0 20.996786438572162 0 0 0 0 0 79.38824229359064 0 0 23.081294275643288 0 0 0 0 0 1.5275236235667615 0 1.2112896090116363 4.848100810241368 -75.94867920802388 -81.00327312566755 0 0 0 0 24.997550564572098 0 0 0 0 0 0 0 0 0 0 0 0 0 0 0 0 0 0 0 0 0 0 0 0 0 0 0 0 0 0 0 0 0 0 0 0 0 0 0 0 0 0 0 0 0 0 32.52667392937385 0 0 -35.00044290064474 0 0 0 0 0 0 0 0 0 0 18.168403253195194 2.4385839357223555 9.477297252938165 53.30220516764479 -31.59109216894932 41.289242723824 6.086433613006504 0.9943330344905733 4.997732603022402 -14.712058906009275 13.737927559783653 39.39194205752698 0 0 0 0 0 0 0 0 0 0 0 0 0 0 0 0 0 0 0 0 0 0 0 0 0 0 0 0 0 0 0 0 0 0 0 0 0 0 0 0 0 0 0 0 0
2.1468555533869287 -11.147055686473893 2.0892714547936673 180 -64.99562455865457 180 -25.103318310466996 -28.1443755259045 52.23597199701571 174.44038734391515 43.51423691633684 171.95333127873664 -0.003501796408491745 2.9991939409072557 -1.0023681868484131 0 0 0 23.32222985646753 -34.9633006269902 -61.39654775635866 -173.2183787805774 49.16882045160809 -171.06815579189453 0 20.996786438572162 0 0 0 0 0 79.38824229359064 0 0 23.081294275643288 0 0 0 0 0 1.5275236235667615 0 1.2112896090116363 4.848100810241368 -75.94867920802388 -81.00328071509664 0 0 0 0 24.997550564572098 0 0 0 0 0 0 0 0 0 0 0 0 0 0 0 0 0 0 0 0 0 0 0 0 0 0 0 0 0 0 0 0 0 0 0 0 0 0 0 0 0 0 0 0 0 0 32.52667392937385 0 0 -35.95909306324672 0 0 0 0 0 0 0 0 0 0 18.121149227625462 2.404329618724866 9.142540896983864 53.586036599296285 -31.801819474520908 40.954821476898914 6.086433613006504 0.9943330344905733 4.997732603022402 -14.93490104694087 12.03879878463874 38.01027933733435 0 0 0 0 0 0 0 0 0 0 0 0 0 0 0 0 0 0 0 0 0 0 0 0 0 0 0 0 0 0 0 0 0 0 0 0 0 0 0 0 0 0 0 0 0
2.1468555533869287 -11.147055686473893 2.031687356200406 180 -64.99563263813488 180 -25.205536747355044 -27.833539515966773 51.65582675249663 174.21587547148644 44.64400629836908 171.79714119788278 -0.003501796408491745 2.9991939409072557 -1.0023681868484131 0 0 0 23.31907756185248 -34.1309598813146 -60.46707599092297 -173.01155063260725 50.01432005042835 -170.91066290417768 0 20.996786438572162 0 0 0 0 0 79.38824229359064 0 0 23.081294275643288 0 0 0 0 0 1.5275236235667615 0 1.211288966525851 4.848100810241368 -75.94868752096758 -81.00327312566755 0 0 0 0 24.997550564572098 0 0 0 0 0 0 0 0 0 0 0 0 0 0 0 0 0 0 0 0 0 0 0 0 0 0 0 0 0 0 0 0 0 0 0 0 0 0 0 0 0 0 0 0 0 0 32.52667392937385 0 0 -36.92014338713374 0 0 0 0 0 0 0 0 0 0 18.074091340397594 2.3697950295876167 8.807785399248989 53.871983546145835 -32.01112745894613 40.61837390096076 6.086433613006504 0.9943330344905733 4.997732603022402 -15.115429720846942 10.327460917779083 36.6374669694763 0 0 0 0 0 0 0 0 0 0 0 0 0 0 0 0 0 0 0 0 0 0 0 0 0 0 0 0 0 0 0 0 0 0 0 0 0 0 0 0 0 0 0 0 0
2.1468555533869287 -11.147055686473893 1.9741029892148734 180 -64.99562455865457 180 -25.31105391565601 -27.523508539862465 51.07648150018333 173.98220987671073 45.774429989015424 171.63130413434206 -0.003501796408491745 2.9991930859625673 -1.0023681868484131 0 0 0 23.332126697948585 -33.297693875246395 -59.54549971988639 -172.79718537717963 50.85993992059363 -170.74539943530385 0 20.996786438572162 0 0 0 0 0 79.38824229359064 0 0 23.081294275643288 0 0 0 0 0 1.5275236235667615 0 1.2112896090116363 4.848100810241368 -75.94867920802388 -81.00327312566755 0 0 0 0 24.997549016977857 0 0 0 0 0 0 0 0 0 0 0 0 0 0 0 0 0 0 0 0 0 0 0 0 0 0 0 0 0 0 0 0 0 0 0 0 0 0 0 0 0 0 0 0 0 0 32.52667392937385 0 0 -37.88349304475131 0 0 0 0 0 0 0 0 0 0 18.027227896482525 2.334983808442332 8.473035725393496 54.160059602687895 -32.21902535438608 40.27989318604412 6.086433613006504 0.9943330344905733 4.997732603022402 -15.253983153035456 8.606089303456123 35.271971779755006 0 0 0 0 0 0 0 0 0 0 0 0 0 0 0 0 0 0 0 0 0 0 0 0 0 0 0 0 0 0 0 0 0 0 0 0 0 0 0 0 0 0 0 0 0
2.1468555533869287 -11.147055686473893 1.9165188906216117 180 -64.99563263813488 180 -25.41983068472454 -27.21434545620766 50.49795352926993 173.73867723149573 46.90526714388534 171.4551126750932 -0.003501796408491745 2.9991930859625673 -1.0023681868484131 0 0 0 23.360979104721938 -32.463918033837224 -58.63147746387156 -172.5748104917311 51.705495746653746 -170.571888887875 0 20.996786438572162 0 0 0 0 0 79.38824229359064 0 0 23.081292419511826 0 0 0 0 0 1.5275236235667615 0 1.2112906798212777 4.848099524982576 -75.9486642454686 -81.00327312566755 0 0 0 0 24.997549016977857 0 0 0 0 0 0 0 0 0 0 0 0 0 0 0 0 0 0 0 0 0 0 0 0 0 0 0 0 0 0 0 0 0 0 0 0 0 0 0 0 0 0 0 0 0 0 32.52667392937385 0 0 -38.848988441427664 0 0 0 0 0 0 0 0 0 0 17.980571257483057 2.299897885689978 8.138301050129511 54.45027976027695 -32.425506240251906 39.93937253198979 6.086433613006504 0.9943330344905733 4.997732603022402 -15.350838585614023 6.876872711321018 33.912253606016044 0 0 0 0 0 0 0 0 0 0 0 0 0 0 0 0 0 0 0 0 0 0 0 0 0 0 0 0 0 0 0 0 0 0 0 0 0 0 0 0 0 0 0 0 0
2.1468555533869287 -11.147055686473893 1.8589347920283505 180 -64.99563263813488 180 -25.531827472691337 -26.906102991757614 49.92022137842974 173.48449037771366 48.03625847282781 171.26778559587393 -0.003501796408491745 2.9991939409072557 -1.0023681868484131 0 0 0 23.405217237865312 -31.630033929789306 -57.72458994433583 -172.34388322822758 52.55091496085597 -170.38959215474665 0 20.996786438572162 0 0 0 0 0 79.38824229359064 0 0 23.081294275643288 0 0 0 0 0 1.5275236235667615 0 1.2112896090116363 4.848100810241368 -75.94867920802388 -81.00327312566755 0 0 0 0 24.997549016977857 0 0 0 0 0 0 0 0 0 0 0 0 0 0 0 0 0 0 0 0 0 0 0 0 0 0 0 0 0 0 0 0 0 0 0 0 0 0 0 0 0 0 0 0 0 0 32.52667392937385 0 0 -39.816503548933206 0 0 0 0 0 0 0 0 0 0 17.934118673038984 2.264537268594996 7.803586687917891 54.74263001740141 -32.63052658502244 39.596811515365054 6.086433613006504 0.9943330344905733 4.997732603022402 -15.406242318393666 5.142035330536417 32.55680576072035 0 0 0 0 0 0 0 0 0 0 0 0 0 0 0 0 0 0 0 0 0 0 0 0 0 0 0 0 0 0 0 0 0 0 0 0 0 0 0 0 0 0 0 0 0
2.1468555533869287 -11.147055686473893 1.8013506934350891 180 -64.99563263813488 180 -25.647014628262085 -26.598837268879887 49.34330509285121 173.21879053436874 49.167102050180624 171.06846541716484 -0.003501796408491745 2.9991939409072557 -1.0023681868484131 0 0 0 23.464460620082455 -30.79645462142777 -56.82450731677794 -172.10382889540242 53.396064052468915 -170.19793787315456 0 20.996786438572162 0 0 0 0 0 79.38824229359064 0 0 23.081294275643288 0 0 0 0 0 1.5275236235667615 0 1.2112896090116363 4.848100810241368 -75.94867920802388 -81.00327312566755 0 0 0 0 24.997550564572098 0 0 0 0 0 0 0 0 0 0 0 0 0 0 0 0 0 0 0 0 0 0 0 0 0 0 0 0 0 0 0 0 0 0 0 0 0 0 0 0 0 0 0 0 0 0 32.52667392937385 0 0 -40.78592772719449 0 0 0 0 0 0 0 0 0 0 17.88786787456546 2.2289055952419106 7.468895507169129 55.03713259698771 -32.834107440381 39.25220863947039 6.086433613006504 0.9943330344905733 4.997732603022402 -15.42039168755164 3.403815742267946 31.204104304072345 0 0 0 0 0 0 0 0 0 0 0 0 0 0 0 0 0 0 0 0 0 0 0 0 0 0 0 0 0 0 0 0 0 0 0 0 0 0 0 0 0 0 0 0 0
2.1468555533869287 -11.147055686473893 1.7437665948418277 180 -64.99563263813488 180 -25.76534361437657 -26.292590638501835 48.76716739763311 172.9406155369848 50.29753257487313 170.85619797495764 -0.003501796408491745 2.9991939409072557 -1.0023681868484131 0 0 0 23.53832510884914 -29.96356364857764 -55.930849358323755 -171.85402153379158 54.24080644828989 -169.99630000086813 0 20.996786438572162 0 0 0 0 0 79.38824229359064 0 0 23.081294275643288 0 0 0 0 0 1.5275236235667615 0 1.2112896090116363 4.848100810241368 -75.94867920802388 -81.00328071509664 0 0 0 0 24.997550564572098 0 0 0 0 0 0 0 0 0 0 0 0 0 0 0 0 0 0 0 0 0 0 0 0 0 0 0 0 0 0 0 0 0 0 0 0 0 0 0 0 0 0 0 0 0 0 32.52667392937385 0 0 -41.757093075957926 0 0 0 0 0 0 0 0 0 0 17.84183284541716 2.193003939688205 7.134237039290783 55.333761557933194 -33.036155940860404 38.90556696820642 6.086433613006504 0.9943330344905733 4.9977334536782045 -15.393442088947742 1.6644657246511074 29.852663654219764 0 0 0 0 0 0 0 0 0 0 0 0 0 0 0 0 0 0 0 0 0 0 0 0 0 0 0 0 0 0 0 0 0 0 0 0 0 0 0 0 0 0 0 0 0
